<svg width="50" height="55" fill="none" xmlns="http://www.w3.org/2000/svg"><ellipse cx="25" cy="27.358" rx="25" ry="27.006" fill="#25BEF6"/><ellipse cx="25" cy="27.358" rx="25" ry="27.006" fill="#01D39A"/><path d="M35.707 21.044a1 1 0 000-1.415l-6.364-6.364a1 1 0 10-1.414 1.415l5.657 5.656-5.657 5.657a1 1 0 001.414 1.415l6.364-6.364zM14 21.336h21v-2H14v2z" fill="#000"/><path d="M14.293 34.213a1 1 0 000 1.414l6.364 6.364a1 1 0 101.414-1.414l-5.657-5.657 5.657-5.657a1 1 0 00-1.414-1.414l-6.364 6.364zM36 33.92H25.5v2H36v-2zm-10.5 0H15v2h10.5v-2z" fill="#fff"/></svg>