<svg width="158" height="30" fill="none" xmlns="http://www.w3.org/2000/svg"><path d="M48 1.336l4 3.998L57.333 0H60l-4 3.999L52 8l-4-4.001V1.336zM22 16.001C22 11.321 25.807 8 31.013 8 36.218 8 40 11.32 40 16.001 40 20.682 36.22 24 31.013 24 25.804 24 22 20.68 22 16.001zm13.187 0c0-2.685-1.799-4.303-4.174-4.303-2.376 0-4.203 1.618-4.203 4.303 0 2.686 1.83 4.304 4.203 4.304 2.372 0 4.154-1.618 4.154-4.304h.02zM43 9h4.705v8.922L55.661 9H60v15h-4.705v-8.922L47.373 24H43V9z" fill="#0385B6"/><path d="M123 15.904v8.865h-3.991v-1.934c-.794 1.416-2.33 2.165-4.497 2.165-3.456 0-5.512-2.022-5.512-4.707 0-2.744 1.836-4.65 6.334-4.65h3.4c0-1.936-1.097-3.062-3.4-3.062-1.561 0-3.181.55-4.25 1.445l-1.537-3.148C111.167 9.664 113.553 9 115.912 9c4.485 0 7.088 2.194 7.088 6.904zm-4.288 3.956v-1.594h-2.924c-2 0-2.633.78-2.633 1.82 0 1.126.905 1.878 2.414 1.878 1.422.018 2.661-.688 3.153-2.107l-.01.003zM158 13.57h-5.609V25h-4.779V13.57H142V10h16v3.57z" fill="#01D39A"/><path d="M14.972 24v-8.984l-4.592 7.531H8.496l-4.48-7.558V24H0V9h4.657l4.905 8.684L14.779 9h4.165L19 24h-4.028z" fill="#0385B6"/><path d="M75.096 25.348c-2.613 0-4.825-.336-6.636-1.008-1.792-.672-3.155-1.652-4.088-2.94C63.457 20.093 63 18.516 63 16.668c0-1.867.457-3.444 1.372-4.732.933-1.307 2.305-2.296 4.116-2.968 1.81-.672 4.023-1.008 6.636-1.008h1.4c2.595 0 4.77.345 6.524 1.036 1.773.672 3.117 1.661 4.032 2.968.915 1.288 1.372 2.856 1.372 4.704 0 1.83-.448 3.397-1.344 4.704-.877 1.288-2.184 2.277-3.92 2.968-1.736.672-3.873 1.008-6.412 1.008h-1.68zm.504-4.256h.532c1.605 0 2.921-.159 3.948-.476 1.027-.317 1.783-.803 2.268-1.456.485-.653.728-1.493.728-2.52 0-1.045-.252-1.885-.756-2.52s-1.26-1.101-2.268-1.4c-1.008-.317-2.296-.476-3.864-.476H75.6c-1.68 0-3.052.15-4.116.448-1.064.299-1.848.775-2.352 1.428-.504.635-.756 1.484-.756 2.548 0 1.045.27 1.895.812 2.548.56.653 1.372 1.13 2.436 1.428 1.083.299 2.408.448 3.976.448zm-2.408 6.356V6h5.068v21.448h-5.068zm26.356-2.768c-1.288 0-2.39-.28-3.304-.84-.915-.579-1.615-1.437-2.1-2.576-.467-1.157-.7-2.632-.7-4.424 0-1.81.224-3.285.672-4.424.448-1.157 1.12-2.016 2.016-2.576.915-.56 2.053-.84 3.416-.84 1.381 0 2.632.327 3.752.98 1.139.635 2.035 1.54 2.688 2.716.672 1.157 1.008 2.539 1.008 4.144s-.336 2.996-1.008 4.172c-.653 1.176-1.549 2.081-2.688 2.716-1.12.635-2.371.952-3.752.952zM90 29.86V9.252h5.068v2.576l-.028 5.012.28 5.04v7.98H90zm8.428-9.408c.597 0 1.13-.14 1.596-.42.485-.28.868-.69 1.148-1.232.299-.541.448-1.195.448-1.96 0-.765-.149-1.419-.448-1.96-.28-.541-.663-.952-1.148-1.232a3.043 3.043 0 00-1.596-.42 3.19 3.19 0 00-1.624.42c-.467.28-.85.69-1.148 1.232-.28.541-.42 1.195-.42 1.96 0 .765.14 1.419.42 1.96.299.541.681.952 1.148 1.232a3.19 3.19 0 001.624.42zM124 25.176l6.972-9.156-.112 3.024L124.168 10h5.992l3.752 5.348-2.24.112 3.976-5.46h5.628l-6.692 8.848v-2.912l6.888 9.24h-6.076l-3.92-5.712 2.24.308-3.948 5.404H124z" fill="#01D39A"/></svg>